<svg width="364" height="45" viewBox="0 0 364 45" fill="none" xmlns="http://www.w3.org/2000/svg">
<g clip-path="url(#clip0)">
<path d="M239.72 31.5389H235.096C235.08 31.5389 235.064 31.5347 235.051 31.5268C235.037 31.5189 235.025 31.5076 235.017 31.4939L230.17 23.2619H227.918V31.4459C227.918 31.4581 227.916 31.4701 227.911 31.4814C227.907 31.4927 227.9 31.5029 227.891 31.5116C227.883 31.5202 227.873 31.5271 227.861 31.5318C227.85 31.5365 227.838 31.5389 227.826 31.5389H223.844C223.82 31.5389 223.796 31.5292 223.779 31.5119C223.762 31.4947 223.752 31.4713 223.752 31.4469V11.3449C223.752 11.3205 223.762 11.2971 223.779 11.2798C223.796 11.2626 223.82 11.2529 223.844 11.2529H231.559C236.18 11.2529 238.725 13.3459 238.725 17.1449C238.77 18.5406 238.315 19.9064 237.443 20.9969C236.701 21.8938 235.724 22.5663 234.622 22.9389L239.797 31.3969C239.805 31.4111 239.81 31.4274 239.81 31.4439C239.81 31.4604 239.805 31.4766 239.797 31.4909C239.789 31.5049 239.778 31.5166 239.765 31.525C239.751 31.5335 239.736 31.5382 239.72 31.5389ZM227.918 14.7599V19.6989H231.364C233.495 19.6989 234.531 18.8639 234.531 17.1449C234.531 16.0569 233.986 14.7599 231.392 14.7599H227.918Z" fill="#7159C1"/>
<path d="M247.509 31.6069C243.273 31.6069 240.427 28.5849 240.427 24.0919C240.427 19.7549 243.406 16.6069 247.509 16.6069C251.729 16.6069 254.564 19.6149 254.564 24.0919C254.564 28.4449 251.597 31.6069 247.509 31.6069ZM247.509 20.0829C245.487 20.0809 244.227 21.6179 244.227 24.0919C244.227 26.5999 245.483 28.1569 247.506 28.1569C249.511 28.1569 250.757 26.5989 250.757 24.0919C250.76 21.6179 249.515 20.0809 247.509 20.0809V20.0829Z" fill="#7159C1"/>
<path d="M263.109 20.081C263.758 20.0133 264.407 20.2002 264.921 20.6023C265.434 21.0043 265.771 21.5901 265.861 22.236C265.865 22.2566 265.877 22.2751 265.893 22.2884C265.909 22.3017 265.93 22.309 265.951 22.309H269.488C269.501 22.309 269.513 22.3063 269.525 22.3012C269.537 22.296 269.547 22.2884 269.556 22.279C269.565 22.2696 269.571 22.2585 269.575 22.2465C269.579 22.2344 269.581 22.2217 269.58 22.209C269.29 18.649 266.966 16.607 263.193 16.607C262.222 16.5715 261.255 16.7484 260.359 17.1253C259.463 17.5021 258.661 18.0699 258.007 18.789C256.749 20.3056 256.094 22.2321 256.166 24.201C256.166 28.768 258.805 31.607 263.053 31.607C266.813 31.607 269.191 29.596 269.578 26.089C269.579 26.076 269.578 26.063 269.574 26.0506C269.57 26.0382 269.564 26.0267 269.555 26.017C269.546 26.0073 269.536 25.9995 269.524 25.9942C269.513 25.9888 269.5 25.986 269.487 25.986H265.95C265.929 25.986 265.908 25.9934 265.892 26.0069C265.875 26.0204 265.864 26.0392 265.86 26.06C265.581 27.474 264.689 28.133 263.053 28.133C260.366 28.131 259.966 25.634 259.966 24.146C259.966 22.181 260.791 20.08 263.105 20.08" fill="#7159C1"/>
<path d="M291.416 31.6069C287.016 31.6069 284.389 28.8159 284.389 24.1459C284.389 19.6369 287.202 16.6069 291.389 16.6069C295.5 16.6069 298.054 19.4129 298.054 23.9289C298.054 24.4169 298.026 24.8289 297.999 25.2289V25.2419C297.997 25.2651 297.987 25.2868 297.97 25.3028C297.954 25.3187 297.931 25.3277 297.908 25.3279H288.23C288.443 27.2969 289.496 28.2959 291.36 28.2959C291.904 28.3829 292.461 28.2726 292.93 27.9849C293.4 27.6971 293.751 27.2509 293.92 26.7269C293.926 26.709 293.938 26.6934 293.953 26.6823C293.969 26.6712 293.987 26.6651 294.006 26.6649H297.515C297.528 26.6648 297.541 26.6676 297.554 26.6731C297.566 26.6787 297.576 26.6868 297.585 26.6969C297.594 26.707 297.6 26.7189 297.604 26.7316C297.607 26.7444 297.608 26.7578 297.606 26.7709C297.189 29.6159 294.639 31.6069 291.416 31.6069ZM291.332 19.9719C290.627 19.9144 289.927 20.1274 289.374 20.5677C288.821 21.0079 288.456 21.6423 288.354 22.3419H294.201C294.125 21.6511 293.783 21.017 293.248 20.5744C292.712 20.1319 292.025 19.9157 291.332 19.9719Z" fill="#7159C1"/>
<path d="M309.318 16.6038H306.067V12.9958C306.067 12.9716 306.057 12.9483 306.04 12.9311C306.023 12.9139 306 12.9041 305.976 12.9038H302.355C302.331 12.9041 302.308 12.9139 302.291 12.9311C302.274 12.9483 302.264 12.9716 302.264 12.9958V16.6038H299.793C299.78 16.6037 299.768 16.6064 299.756 16.6115C299.744 16.6166 299.734 16.6241 299.725 16.6335C299.716 16.6429 299.71 16.654 299.706 16.6661C299.701 16.6782 299.7 16.6911 299.701 16.7038V19.9668C299.701 19.9912 299.711 20.0146 299.728 20.0318C299.745 20.0491 299.769 20.0588 299.793 20.0588H302.263V27.6848C302.263 30.9368 304.092 31.6028 306.839 31.6028H309.318C309.342 31.6028 309.366 31.5931 309.383 31.5758C309.4 31.5586 309.41 31.5352 309.41 31.5108V28.3038C309.41 28.2794 309.4 28.256 309.383 28.2387C309.366 28.2215 309.342 28.2118 309.318 28.2118H307.48C306.38 28.2118 306.068 27.9118 306.068 26.8798V20.0598H309.318C309.342 20.0598 309.366 20.0501 309.383 20.0328C309.4 20.0156 309.41 19.9922 309.41 19.9678V16.7038C309.411 16.6911 309.41 16.6782 309.405 16.6661C309.401 16.654 309.395 16.6429 309.386 16.6335C309.377 16.6241 309.367 16.6166 309.355 16.6115C309.343 16.6064 309.331 16.6037 309.318 16.6038Z" fill="#7159C1"/>
<path d="M319.729 22.9167L316.666 21.9387C315.524 21.5487 315.308 21.2387 315.308 20.8067C315.308 20.3747 315.508 19.7577 317.194 19.7577C318.507 19.7577 319.306 20.3037 319.331 21.2167C319.332 21.2408 319.341 21.2637 319.359 21.2805C319.376 21.2973 319.399 21.3067 319.423 21.3067H322.958C322.97 21.3066 322.982 21.3041 322.993 21.2993C323.005 21.2945 323.015 21.2875 323.023 21.2787C323.032 21.2701 323.039 21.2598 323.043 21.2485C323.048 21.2371 323.05 21.225 323.05 21.2127C323.087 20.5091 322.942 19.8078 322.63 19.1763C322.317 18.5447 321.848 18.0042 321.266 17.6067C320.062 16.892 318.676 16.5445 317.277 16.6067C314.47 16.6067 311.45 17.7877 311.393 21.1067C311.393 23.6867 313.27 24.6067 315.106 25.1627L317.444 25.8957C319.138 26.4557 319.581 26.6297 319.581 27.2757C319.581 28.0027 319.181 28.4877 317.221 28.4877C315.658 28.4837 314.858 27.9067 314.778 26.7217C314.777 26.6984 314.767 26.6764 314.75 26.6602C314.733 26.6441 314.71 26.6349 314.687 26.6347H311.15C311.138 26.6347 311.126 26.6371 311.115 26.6418C311.103 26.6465 311.093 26.6534 311.085 26.662C311.076 26.6707 311.069 26.6809 311.065 26.6922C311.06 26.7035 311.058 26.7156 311.058 26.7277C311.058 30.7577 314.425 31.6067 317.25 31.6067C318.718 31.6532 320.171 31.2959 321.45 30.5737C322.068 30.1982 322.573 29.6638 322.914 29.0261C323.255 28.3885 323.418 27.671 323.387 26.9487C323.387 24.6177 321.926 23.6487 319.731 22.9197" fill="#7159C1"/>
<path d="M331.715 31.6069C327.315 31.6069 324.688 28.8159 324.688 24.1459C324.688 19.6369 327.501 16.6069 331.688 16.6069C335.799 16.6069 338.353 19.4129 338.353 23.9289C338.353 24.4169 338.325 24.8289 338.298 25.2289V25.2419C338.296 25.2651 338.286 25.2868 338.269 25.3028C338.253 25.3187 338.23 25.3277 338.207 25.3279H328.529C328.742 27.2969 329.795 28.2959 331.659 28.2959C332.203 28.3829 332.76 28.2726 333.229 27.9849C333.699 27.6971 334.05 27.2509 334.219 26.7269C334.225 26.709 334.237 26.6934 334.252 26.6823C334.268 26.6712 334.286 26.6651 334.305 26.6649H337.814C337.827 26.6649 337.84 26.6677 337.853 26.6732C337.865 26.6787 337.875 26.6868 337.884 26.6969C337.893 26.707 337.899 26.7189 337.903 26.7316C337.906 26.7444 337.907 26.7578 337.905 26.7709C337.488 29.6159 334.938 31.6069 331.715 31.6069ZM331.631 19.9719C330.927 19.9147 330.227 20.1278 329.674 20.568C329.121 21.0083 328.756 21.6425 328.654 22.3419H334.5C334.424 21.6511 334.082 21.017 333.547 20.5744C333.011 20.1319 332.324 19.9157 331.631 19.9719Z" fill="#7159C1"/>
<path d="M353.725 31.6199H350.968C350.735 31.6189 350.505 31.5714 350.291 31.4802C350.077 31.389 349.884 31.256 349.722 31.0889C349.327 30.6636 349.104 30.1064 349.098 29.5259C348.584 30.2072 347.907 30.7485 347.129 31.1002C346.351 31.4519 345.497 31.6028 344.646 31.5389C341.859 31.5389 339.986 29.8489 339.986 27.3329C339.986 24.8669 341.67 23.3159 344.992 22.7239L347.386 22.2639C348.548 22.0759 348.816 21.8699 348.816 21.1639C348.816 20.3159 348.008 19.8489 346.54 19.8489C344.993 19.8489 344.209 20.3279 344.209 21.2719C344.209 21.2963 344.199 21.3197 344.182 21.3369C344.165 21.3542 344.141 21.3639 344.117 21.3639H340.579C340.567 21.364 340.555 21.3617 340.543 21.3572C340.532 21.3526 340.522 21.3459 340.513 21.3373C340.505 21.3287 340.498 21.3186 340.493 21.3073C340.488 21.2961 340.486 21.2841 340.486 21.2719C340.486 18.4379 342.896 16.6069 346.623 16.6069C350.677 16.6069 352.647 18.3809 352.647 22.0299V27.7929C352.647 28.3129 352.89 28.5659 353.391 28.5659H353.725C353.749 28.5659 353.773 28.5756 353.79 28.5928C353.807 28.6101 353.817 28.6335 353.817 28.6579V31.5269C353.817 31.5391 353.815 31.5511 353.81 31.5624C353.806 31.5737 353.799 31.5839 353.79 31.5926C353.782 31.6012 353.772 31.6081 353.76 31.6128C353.749 31.6175 353.737 31.6199 353.725 31.6199ZM348.843 24.7329C348.602 24.8423 348.348 24.9197 348.087 24.9629L346.001 25.3949C344.51 25.7199 343.901 26.2109 343.901 27.0949C343.901 28.2949 344.836 28.5449 345.62 28.5449C346.051 28.5433 346.478 28.4556 346.875 28.2868C347.271 28.1181 347.63 27.8717 347.931 27.5622C348.231 27.2528 348.466 26.8864 348.623 26.4847C348.78 26.0829 348.854 25.6539 348.843 25.2229V24.7329Z" fill="#7159C1"/>
<path d="M363.908 20.0598C363.932 20.0598 363.956 20.0501 363.973 20.0328C363.99 20.0156 364 19.9922 364 19.9678V16.7038C364.001 16.6911 364 16.6782 363.995 16.6661C363.991 16.654 363.985 16.6429 363.976 16.6335C363.967 16.6241 363.957 16.6166 363.945 16.6115C363.933 16.6064 363.921 16.6037 363.908 16.6038H360.657V12.9958C360.657 12.9716 360.647 12.9483 360.63 12.9311C360.613 12.9139 360.59 12.9041 360.566 12.9038H356.945C356.921 12.9041 356.898 12.9139 356.881 12.9311C356.864 12.9483 356.854 12.9716 356.854 12.9958V16.6038H354.382C354.369 16.6039 354.357 16.6066 354.345 16.6118C354.334 16.617 354.323 16.6245 354.315 16.6339C354.306 16.6433 354.3 16.6543 354.295 16.6664C354.291 16.6784 354.29 16.6911 354.291 16.7038V19.9668C354.291 19.991 354.301 20.0143 354.318 20.0315C354.335 20.0487 354.358 20.0585 354.382 20.0588H356.853V27.6848C356.853 30.9368 358.682 31.6028 361.429 31.6028H363.908C363.932 31.6028 363.956 31.5931 363.973 31.5758C363.99 31.5586 364 31.5352 364 31.5108V28.3038C364 28.2794 363.99 28.256 363.973 28.2387C363.956 28.2215 363.932 28.2118 363.908 28.2118H362.07C360.97 28.2118 360.658 27.9118 360.658 26.8798V20.0598H363.908Z" fill="#7159C1"/>
<path d="M279.043 22.4851L284.797 16.7661C284.81 16.7532 284.819 16.7369 284.822 16.7192C284.826 16.7015 284.825 16.683 284.818 16.6661C284.811 16.6489 284.8 16.634 284.785 16.6235C284.769 16.613 284.751 16.6073 284.733 16.6071H280.196C280.183 16.6064 280.171 16.6084 280.159 16.6129C280.148 16.6174 280.137 16.6243 280.128 16.6331L275.028 21.6331V16.7001C275.028 16.6764 275.019 16.6534 275.003 16.6361C274.987 16.6188 274.965 16.6084 274.941 16.6071H271.32C271.308 16.6071 271.296 16.6095 271.284 16.6142C271.273 16.6189 271.263 16.6257 271.254 16.6344C271.246 16.643 271.239 16.6533 271.235 16.6646C271.23 16.6759 271.228 16.6879 271.228 16.7001V31.5071C271.227 31.5198 271.228 31.5327 271.232 31.5448C271.237 31.5569 271.243 31.568 271.252 31.5774C271.26 31.5868 271.271 31.5943 271.283 31.5994C271.294 31.6045 271.307 31.6071 271.32 31.6071H274.941C274.953 31.6065 274.965 31.6034 274.977 31.5979C274.988 31.5925 274.998 31.5849 275.006 31.5756C275.014 31.5663 275.02 31.5554 275.024 31.5436C275.028 31.5318 275.029 31.5194 275.028 31.5071V26.4951L276.319 25.2161L280.602 31.5641C280.61 31.577 280.621 31.5877 280.635 31.5952C280.648 31.6027 280.663 31.6068 280.678 31.6071H285.19C285.207 31.6069 285.223 31.6022 285.237 31.5934C285.252 31.5846 285.263 31.572 285.271 31.5571C285.28 31.5416 285.284 31.5239 285.283 31.5062C285.282 31.4885 285.275 31.4714 285.265 31.4571L279.043 22.4851Z" fill="#7159C1"/>
<path d="M190.706 27.9787C189.642 27.3207 185.153 24.5527 185.153 24.5527C185.153 24.5527 180.666 21.7797 179.6 21.1237C179.576 21.1095 179.55 21.1017 179.522 21.1011C179.495 21.1004 179.468 21.1069 179.444 21.12C179.42 21.1331 179.4 21.1522 179.386 21.1755C179.371 21.1988 179.364 21.2254 179.363 21.2527C179.351 21.5007 179.334 21.8707 179.324 22.0767C179.319 22.176 179.344 22.2743 179.397 22.3587L180.672 24.4087C180.737 24.5137 180.78 24.6307 180.798 24.7527C180.817 24.8747 180.811 24.9992 180.78 25.1187L179.88 28.6187C179.861 28.6878 179.864 28.7606 179.886 28.8285C179.908 28.8963 179.95 28.9562 180.006 29.0007C180.557 29.4387 181.135 29.8424 181.736 30.2097C182.333 30.5808 182.952 30.9147 183.59 31.2097C183.654 31.2391 183.725 31.2491 183.794 31.2384C183.864 31.2278 183.929 31.1969 183.981 31.1497L186.651 28.7427C186.741 28.6607 186.848 28.5982 186.964 28.5592C187.08 28.5201 187.202 28.5053 187.324 28.5157L189.711 28.7247C189.809 28.7334 189.908 28.7114 189.993 28.6617L190.7 28.2507C190.723 28.2366 190.743 28.2166 190.756 28.1928C190.769 28.169 190.776 28.1421 190.776 28.1147C190.776 28.0874 190.769 28.0605 190.756 28.0367C190.743 28.0129 190.723 27.9929 190.7 27.9787" fill="#7159C1"/>
<path d="M183.168 32.4497C183.145 32.3107 183.09 32.179 183.007 32.0654C182.924 31.9517 182.815 31.8593 182.69 31.7957C181.979 31.4367 181.413 31.0957 181.258 30.9957C181.103 30.8957 180.543 30.5507 179.9 30.0747C179.788 29.9913 179.658 29.9359 179.52 29.9131C179.382 29.8903 179.241 29.9008 179.108 29.9437L178.953 29.9937C178.423 30.1675 177.944 30.4705 177.56 30.8753C177.176 31.2801 176.899 31.774 176.753 32.3127L174.013 42.3527C173.992 42.4243 173.996 42.5007 174.023 42.5701C174.05 42.6396 174.099 42.6984 174.162 42.7376C174.225 42.7767 174.3 42.7941 174.374 42.7871C174.448 42.7801 174.518 42.749 174.573 42.6987L182.158 35.6487C182.567 35.2669 182.876 34.7899 183.057 34.2601C183.237 33.7303 183.285 33.1641 183.194 32.6117L183.168 32.4497Z" fill="#7159C1"/>
<path d="M209.281 1.87688C209.339 1.81703 209.385 1.74616 209.416 1.66838C209.447 1.5906 209.463 1.50745 209.461 1.42375C209.46 1.34005 209.442 1.25745 209.408 1.18075C209.375 1.10404 209.326 1.03475 209.266 0.976881C209.105 0.849432 208.914 0.766329 208.712 0.735881L203.999 0.0138805C203.784 -0.0187117 203.564 0.00845674 203.364 0.0924121C203.163 0.176368 202.989 0.313874 202.862 0.489881L200.291 4.01288C200.11 4.26061 200.03 4.56786 200.067 4.87237C200.104 5.17689 200.256 5.45591 200.491 5.65288C200.507 5.66536 200.518 5.68272 200.522 5.7022C200.527 5.72168 200.525 5.74218 200.517 5.76044C200.509 5.77869 200.494 5.79367 200.477 5.80299C200.459 5.81231 200.439 5.81544 200.419 5.81188L199.119 5.61188L197.333 5.33788C197.088 5.30083 196.839 5.3317 196.611 5.42712C196.382 5.52253 196.185 5.67882 196.04 5.87888L188.524 16.1789C188.477 16.2433 188.408 16.2878 188.33 16.3036C188.252 16.3193 188.171 16.3052 188.103 16.2639L180.872 11.8469C180.758 11.7776 180.631 11.7319 180.499 11.7127C180.367 11.6935 180.233 11.7011 180.104 11.7351C179.975 11.7691 179.854 11.8287 179.749 11.9105C179.644 11.9922 179.556 12.0944 179.491 12.2109C179.366 12.4476 179.337 12.7232 179.41 12.9807C179.482 13.2383 179.651 13.4581 179.881 13.5949L180.068 13.7089C180.113 13.7368 180.149 13.7775 180.172 13.8259C180.194 13.8743 180.202 13.9282 180.194 13.9809L179.974 15.4529C179.969 15.4853 179.956 15.516 179.937 15.5423C179.917 15.5687 179.891 15.5898 179.862 15.6038C179.832 15.6178 179.799 15.6243 179.767 15.6228C179.734 15.6212 179.702 15.6117 179.674 15.5949L178.616 14.9589C178.412 14.8329 178.186 14.7485 177.949 14.7108C177.713 14.6731 177.471 14.6828 177.239 14.7393C177.006 14.7958 176.787 14.8979 176.594 15.0398C176.402 15.1818 176.239 15.3606 176.116 15.5659C175.893 15.9336 175.806 16.3672 175.868 16.7923C175.931 17.2175 176.139 17.6077 176.458 17.8959C176.478 17.9139 176.665 18.0599 176.713 18.0899L182.113 21.4349C182.979 22.0292 184.013 22.3304 185.063 22.2944C186.113 22.2585 187.124 21.8871 187.948 21.2349C188.259 20.8976 188.682 20.6849 189.139 20.6363C189.595 20.5878 190.054 20.7067 190.429 20.9709C190.635 21.0956 190.871 21.1615 191.112 21.1615C191.353 21.1615 191.589 21.0956 191.795 20.9709L193.14 20.1649C193.334 20.0483 193.557 19.9871 193.784 19.9882C194.011 19.9893 194.233 20.0524 194.427 20.1709L198.527 22.6709C198.605 22.7178 198.698 22.7335 198.787 22.715C198.876 22.6965 198.955 22.645 199.008 22.5709L209.037 8.86288C209.854 7.76288 209.249 7.22588 208.752 7.09388C208.72 7.08688 208.689 7.07688 208.652 7.07188L206.253 6.69988C206.207 6.69168 206.163 6.67241 206.126 6.64373C206.089 6.61504 206.059 6.57779 206.039 6.53515C206.02 6.49252 206.011 6.44576 206.013 6.39887C206.015 6.35198 206.029 6.30635 206.053 6.26588C206.867 5.15388 209.278 1.87288 209.278 1.87288" fill="#7159C1"/>
</g>
<path d="M11.25 22H9.612L3.024 12.01V22H1.386V9.436H3.024L9.612 19.408V9.436H11.25V22ZM23.0423 16.69C23.0423 17.002 23.0243 17.332 22.9883 17.68H15.1043C15.1643 18.652 15.4943 19.414 16.0943 19.966C16.7063 20.506 17.4443 20.776 18.3083 20.776C19.0163 20.776 19.6043 20.614 20.0723 20.29C20.5523 19.954 20.8883 19.51 21.0803 18.958H22.8443C22.5803 19.906 22.0523 20.68 21.2603 21.28C20.4683 21.868 19.4843 22.162 18.3083 22.162C17.3723 22.162 16.5323 21.952 15.7883 21.532C15.0563 21.112 14.4803 20.518 14.0603 19.75C13.6403 18.97 13.4303 18.07 13.4303 17.05C13.4303 16.03 13.6343 15.136 14.0423 14.368C14.4503 13.6 15.0203 13.012 15.7523 12.604C16.4963 12.184 17.3483 11.974 18.3083 11.974C19.2443 11.974 20.0723 12.178 20.7923 12.586C21.5123 12.994 22.0643 13.558 22.4483 14.278C22.8443 14.986 23.0423 15.79 23.0423 16.69ZM21.3503 16.348C21.3503 15.724 21.2123 15.19 20.9363 14.746C20.6603 14.29 20.2823 13.948 19.8023 13.72C19.3343 13.48 18.8123 13.36 18.2363 13.36C17.4083 13.36 16.7003 13.624 16.1123 14.152C15.5363 14.68 15.2063 15.412 15.1223 16.348H21.3503ZM30.3524 22L28.0124 18.328L25.7624 22H24.0524L27.2384 17.104L24.0524 12.136H25.9064L28.2464 15.79L30.4784 12.136H32.1884L29.0204 17.014L32.2064 22H30.3524ZM35.8156 13.486V19.3C35.8156 19.78 35.9176 20.122 36.1216 20.326C36.3256 20.518 36.6796 20.614 37.1836 20.614H38.3896V22H36.9136C36.0016 22 35.3176 21.79 34.8616 21.37C34.4056 20.95 34.1776 20.26 34.1776 19.3V13.486H32.8996V12.136H34.1776V9.652H35.8156V12.136H38.3896V13.486H35.8156ZM46.8111 20.668H51.2031V22H45.1731V9.454H46.8111V20.668ZM61.9426 16.69C61.9426 17.002 61.9246 17.332 61.8886 17.68H54.0046C54.0646 18.652 54.3946 19.414 54.9946 19.966C55.6066 20.506 56.3446 20.776 57.2086 20.776C57.9166 20.776 58.5046 20.614 58.9726 20.29C59.4526 19.954 59.7886 19.51 59.9806 18.958H61.7446C61.4806 19.906 60.9526 20.68 60.1606 21.28C59.3686 21.868 58.3846 22.162 57.2086 22.162C56.2726 22.162 55.4326 21.952 54.6886 21.532C53.9566 21.112 53.3806 20.518 52.9606 19.75C52.5406 18.97 52.3306 18.07 52.3306 17.05C52.3306 16.03 52.5346 15.136 52.9426 14.368C53.3506 13.6 53.9206 13.012 54.6526 12.604C55.3966 12.184 56.2486 11.974 57.2086 11.974C58.1446 11.974 58.9726 12.178 59.6926 12.586C60.4126 12.994 60.9646 13.558 61.3486 14.278C61.7446 14.986 61.9426 15.79 61.9426 16.69ZM60.2506 16.348C60.2506 15.724 60.1126 15.19 59.8366 14.746C59.5606 14.29 59.1826 13.948 58.7026 13.72C58.2346 13.48 57.7126 13.36 57.1366 13.36C56.3086 13.36 55.6006 13.624 55.0126 14.152C54.4366 14.68 54.1066 15.412 54.0226 16.348H60.2506ZM67.7768 20.488L70.8368 12.136H72.5828L68.7128 22H66.8048L62.9348 12.136H64.6988L67.7768 20.488ZM83.1946 16.69C83.1946 17.002 83.1766 17.332 83.1406 17.68H75.2566C75.3166 18.652 75.6466 19.414 76.2466 19.966C76.8586 20.506 77.5966 20.776 78.4606 20.776C79.1686 20.776 79.7566 20.614 80.2246 20.29C80.7046 19.954 81.0406 19.51 81.2326 18.958H82.9966C82.7326 19.906 82.2046 20.68 81.4126 21.28C80.6206 21.868 79.6366 22.162 78.4606 22.162C77.5246 22.162 76.6846 21.952 75.9406 21.532C75.2086 21.112 74.6326 20.518 74.2126 19.75C73.7926 18.97 73.5826 18.07 73.5826 17.05C73.5826 16.03 73.7866 15.136 74.1946 14.368C74.6026 13.6 75.1726 13.012 75.9046 12.604C76.6486 12.184 77.5006 11.974 78.4606 11.974C79.3966 11.974 80.2246 12.178 80.9446 12.586C81.6646 12.994 82.2166 13.558 82.6006 14.278C82.9966 14.986 83.1946 15.79 83.1946 16.69ZM81.5026 16.348C81.5026 15.724 81.3646 15.19 81.0886 14.746C80.8126 14.29 80.4346 13.948 79.9546 13.72C79.4866 13.48 78.9646 13.36 78.3886 13.36C77.5606 13.36 76.8526 13.624 76.2646 14.152C75.6886 14.68 75.3586 15.412 75.2746 16.348H81.5026ZM86.9947 8.68V22H85.3567V8.68H86.9947ZM110.353 9.454L106.717 22H104.881L101.965 11.902L98.9412 22L97.1232 22.018L93.6132 9.454H95.3592L98.0952 20.092L101.119 9.454H102.955L105.835 20.056L108.589 9.454H110.353ZM121.146 16.69C121.146 17.002 121.128 17.332 121.092 17.68H113.208C113.268 18.652 113.598 19.414 114.198 19.966C114.81 20.506 115.548 20.776 116.412 20.776C117.12 20.776 117.708 20.614 118.176 20.29C118.656 19.954 118.992 19.51 119.184 18.958H120.948C120.684 19.906 120.156 20.68 119.364 21.28C118.572 21.868 117.588 22.162 116.412 22.162C115.476 22.162 114.636 21.952 113.892 21.532C113.16 21.112 112.584 20.518 112.164 19.75C111.744 18.97 111.534 18.07 111.534 17.05C111.534 16.03 111.738 15.136 112.146 14.368C112.554 13.6 113.124 13.012 113.856 12.604C114.6 12.184 115.452 11.974 116.412 11.974C117.348 11.974 118.176 12.178 118.896 12.586C119.616 12.994 120.168 13.558 120.552 14.278C120.948 14.986 121.146 15.79 121.146 16.69ZM119.454 16.348C119.454 15.724 119.316 15.19 119.04 14.746C118.764 14.29 118.386 13.948 117.906 13.72C117.438 13.48 116.916 13.36 116.34 13.36C115.512 13.36 114.804 13.624 114.216 14.152C113.64 14.68 113.31 15.412 113.226 16.348H119.454ZM132.308 16.69C132.308 17.002 132.29 17.332 132.254 17.68H124.37C124.43 18.652 124.76 19.414 125.36 19.966C125.972 20.506 126.71 20.776 127.574 20.776C128.282 20.776 128.87 20.614 129.338 20.29C129.818 19.954 130.154 19.51 130.346 18.958H132.11C131.846 19.906 131.318 20.68 130.526 21.28C129.734 21.868 128.75 22.162 127.574 22.162C126.638 22.162 125.798 21.952 125.054 21.532C124.322 21.112 123.746 20.518 123.326 19.75C122.906 18.97 122.696 18.07 122.696 17.05C122.696 16.03 122.9 15.136 123.308 14.368C123.716 13.6 124.286 13.012 125.018 12.604C125.762 12.184 126.614 11.974 127.574 11.974C128.51 11.974 129.338 12.178 130.058 12.586C130.778 12.994 131.33 13.558 131.714 14.278C132.11 14.986 132.308 15.79 132.308 16.69ZM130.616 16.348C130.616 15.724 130.478 15.19 130.202 14.746C129.926 14.29 129.548 13.948 129.068 13.72C128.6 13.48 128.078 13.36 127.502 13.36C126.674 13.36 125.966 13.624 125.378 14.152C124.802 14.68 124.472 15.412 124.388 16.348H130.616ZM139.978 22L136.108 17.644V22H134.47V8.68H136.108V16.51L139.906 12.136H142.192L137.548 17.05L142.21 22H139.978ZM150.17 13.972C150.506 13.384 150.998 12.904 151.646 12.532C152.294 12.16 153.032 11.974 153.86 11.974C154.748 11.974 155.546 12.184 156.254 12.604C156.962 13.024 157.52 13.618 157.928 14.386C158.336 15.142 158.54 16.024 158.54 17.032C158.54 18.028 158.336 18.916 157.928 19.696C157.52 20.476 156.956 21.082 156.236 21.514C155.528 21.946 154.736 22.162 153.86 22.162C153.008 22.162 152.258 21.976 151.61 21.604C150.974 21.232 150.494 20.758 150.17 20.182V22H148.532V8.68H150.17V13.972ZM156.866 17.032C156.866 16.288 156.716 15.64 156.416 15.088C156.116 14.536 155.708 14.116 155.192 13.828C154.688 13.54 154.13 13.396 153.518 13.396C152.918 13.396 152.36 13.546 151.844 13.846C151.34 14.134 150.932 14.56 150.62 15.124C150.32 15.676 150.17 16.318 150.17 17.05C150.17 17.794 150.32 18.448 150.62 19.012C150.932 19.564 151.34 19.99 151.844 20.29C152.36 20.578 152.918 20.722 153.518 20.722C154.13 20.722 154.688 20.578 155.192 20.29C155.708 19.99 156.116 19.564 156.416 19.012C156.716 18.448 156.866 17.788 156.866 17.032ZM169.193 12.136L163.253 26.644H161.561L163.505 21.892L159.527 12.136H161.345L164.441 20.128L167.501 12.136H169.193Z" fill="black"/>
<defs>
<clipPath id="clip0">
<rect width="190" height="43" fill="white" transform="translate(174)"/>
</clipPath>
</defs>
</svg>
